<svg width="457" height="81" viewBox="0 0 457 81" fill="none" xmlns="http://www.w3.org/2000/svg">
<path fill-rule="evenodd" clip-rule="evenodd" d="M66.1 1.20002C66.4 0.900024 66.9 0.799999 67.3 0.799999H93.2C93.8 0.799999 94.3 1.00001 94.7 1.40001C95.1 1.80001 95.3 2.30001 95.3 2.90001V76.4C95.3 77 95.1 77.5 94.7 77.9C94.3 78.3 93.8 78.5 93.2 78.5H77.3C76.7 78.5 76.2 78.3 75.8 77.9C75.4 77.5 75.2 77 75.2 76.4V29.7C75.2 29.5 75.1 29.2 74.9 29C74.7 28.8 74.5 28.7 74.2 28.7C74 28.7 73.8 28.8 73.6 28.9C73.4 29 73.3 29.2 73.2 29.4L57.3 77.1C57.1 77.5 56.9 77.8 56.5 78.1C56.2 78.4 55.7 78.5 55.3 78.5H41C40.6 78.5 40.2 78.4 39.8 78.1C39.4 77.9 39.1 77.5 39 77.1L23.1 29.4C23 29.2 22.9 29 22.7 28.9C22.6 28.8 22.3 28.7 22.1 28.7C22.05 28.7 21.975 28.725 21.9 28.75C21.825 28.775 21.75 28.8 21.7 28.8C21.5 28.8 21.4 28.9 21.3 29L21.3 29C21.25 29.05 21.225 29.1 21.2 29.15C21.175 29.2 21.15 29.25 21.1 29.3C21 29.4 21 29.6 21 29.7V76.4C21 77 20.8 77.5 20.4 77.9C20 78.3 19.5 78.5 18.9 78.5H3C2.4 78.5 1.9 78.3 1.5 77.9C1.1 77.5 0.899994 77 0.899994 76.4V2.90001C0.899994 2.30001 1.1 1.80001 1.5 1.40001C1.9 1.00001 2.4 0.799999 3 0.799999H29.3C29.7 0.799999 30.1 0.900024 30.5 1.20002C30.9 1.40002 31.2 1.80002 31.3 2.20002L48.2 53.1H48.4L65.3 2.20002C65.5 1.80002 65.7 1.50002 66.1 1.20002ZM203.7 64.3C197.4 64.3 191.8 59 191.8 50.3H191.9V49.3C191.9 40.6 197.5 35.3 203.8 35.3C205.9 35.2 207.9 35.7 209.8 36.5C211.7 37.3 213.3 38.6 214.7 40.1C215 40.5 215.5 40.7 216 40.8C216.5 40.9 217 40.7 217.4 40.4L227.3 33.1C227.6 33 227.8 32.7 227.9 32.5C228.1 32.3 228.2 32 228.2 31.7C228.2 31.5 228.2 31.2 228.1 30.9C228.076 30.8528 228.053 30.8 228.028 30.7443C227.947 30.5639 227.853 30.3528 227.7 30.2C221.9 23.4 213.8 19.7 203.3 19.7H202.3C185.6 19.7 172.1 32.1 172.1 48.6V51.1C172.1 67.6 185.6 80 202.3 80H203.3C213.8 80 221.9 76.3 227.7 69.5C227.9 69.3 228 69.1 228.1 68.8C228.2 68.5 228.2 68.2 228.2 67.9C228.1 67.6 228 67.3 227.9 67.1L227.3 66.5L217.4 59.2C216.9 58.9 216.4 58.7 215.9 58.8C215.4 58.9 214.9 59.1 214.6 59.5C213.3 61 211.6 62.3 209.7 63.1C207.8 63.9 205.8 64.3 203.7 64.3ZM238.8 1.10002C238.4 1.50002 238.2 2.00002 238.2 2.60002V76.3C238.2 76.9 238.4 77.4 238.8 77.8C239.2 78.2 239.7 78.4 240.3 78.4H256.2C256.8 78.4 257.3 78.2 257.7 77.8C258.1 77.4 258.3 76.9 258.3 76.3V54.5H274.3C291.9 54.5 303.4 44.2 303.4 27.9V26.8C303.4 10.6 291.6 0.500011 274.3 0.500011H240.3C239.7 0.500011 239.2 0.700018 238.8 1.10002ZM283.2 27.5C283.2 33.7 277.9 37.9 271 37.9V37.8H258.3V17H271.5C278.2 17 283.2 21.2 283.2 27.1V27.5ZM125.3 80.1C113.9 80.1 105.9 72.5 105.9 62.8C105.9 50 116 44.6 138.4 44.7H142.4C142.4 38.9 139.1 35.5 133.4 35.5C129.1 35.5 124.3 36.5 118.3 39.2C117.8 39.4 117.3 39.4 116.8 39.3C116.3 39.1 115.9 38.8 115.6 38.4L109.4 28.5C109.2 28.3 109.1 28 109.1 27.7C109 27.4 109 27.1 109.1 26.8C109.2 26.5 109.3 26.2 109.5 26C109.7 25.8 109.9 25.6 110.2 25.5C117.8 21.5 126.3 19.5 134.9 19.5H136.5C151.9 19.5 161.7 29 161.7 43.8V76.4C161.7 77 161.5 77.5 161.1 77.9C160.7 78.3 160.2 78.5 159.6 78.5H145.8C145.3 78.5 144.9 78.4 144.5 78.1C144.1 77.8 143.8 77.4 143.7 77C143.652 76.7929 143.604 76.5883 143.557 76.3855C143.307 75.3151 143.068 74.2929 142.9 73.2C142.76 73.3063 142.618 73.4133 142.476 73.521C138.473 76.556 133.798 80.1 125.3 80.1ZM140.5 55.5C130.8 55.5 122.9 57.1 122.9 62C122.9 65.4 126.4 67 130.1 67.1C132.4 67.1 134.7 66.6 136.8 65.7C138.9 64.8 140.8 63.5 142.4 61.8V55.5H140.5ZM327.3 80.1C315.9 80.1 307.9 72.5 307.9 62.8C307.9 50 318 44.6 340.6 44.7H344.6C344.6 38.9 341.3 35.5 335.6 35.5C331.3 35.5 326.5 36.5 320.5 39.2C320 39.4 319.5 39.4 319 39.3C318.5 39.1 318.1 38.8 317.8 38.4L311.6 28.5C311.4 28.3 311.3 28 311.3 27.7C311.2 27.4 311.2 27.1 311.3 26.8C311.4 26.5 311.5 26.2 311.7 26C311.9 25.8 312.1 25.6 312.4 25.5C320 21.5 328.4 19.5 337 19.5H338.5C353.9 19.5 363.7 29 363.7 43.8V76.4C363.7 77 363.5 77.5 363.1 77.9C362.7 78.3 362.2 78.5 361.6 78.5H347.8C347.3 78.5 346.9 78.4 346.5 78.1C346.1 77.8 345.8 77.4 345.7 77C345.652 76.7928 345.604 76.5881 345.557 76.3851C345.307 75.3149 345.068 74.2928 344.9 73.2C344.76 73.3062 344.618 73.4133 344.476 73.521C340.473 76.556 335.798 80.1 327.3 80.1ZM342.5 55.5C332.8 55.5 324.9 57.1 324.9 62C324.9 65.4 328.5 67 332.1 67.1C334.4 67.1 336.7 66.6 338.8 65.7C340.9 64.8 342.8 63.5 344.4 61.8V55.5H342.5ZM404.2 22.1L395.7 56.5C395.7 56.7 395.5 56.9 395.3 57.1C395.2 57.2 394.9 57.3 394.7 57.3C394.4 57.3 394.2 57.2 394 57C393.8 56.9 393.6 56.7 393.6 56.4L389.1 22.4C389 21.9 388.8 21.4 388.4 21.1C388 20.8 387.5 20.6 387 20.6H372C371.7 20.6 371.4 20.7 371.1 20.8C371 20.9 370.875 21 370.75 21.1C370.625 21.2 370.5 21.3 370.4 21.4C370.2 21.6 370.1 21.9 370 22.2C369.9 22.5 369.9 22.8 370 23.1L381.3 76.8C381.4 77.3 381.6 77.7 382 78C382.3 78.3 382.8 78.5 383.3 78.5H402C402.5 78.5 402.9 78.4 403.3 78.1C403.7 77.8 404 77.4 404.1 77L413.1 45.6H413.5L422.5 77C422.7 77.4 422.9 77.8 423.3 78.1C423.7 78.4 424.1 78.5 424.6 78.5H443.2C443.7 78.5 444.2 78.3 444.6 78C444.9 77.7 445.2 77.3 445.3 76.8L456.8 23.1C456.9 22.8 456.9 22.5 456.8 22.2L456.8 22.1996C456.7 21.8997 456.6 21.5999 456.4 21.4C456.2 21.1 456 20.9 455.7 20.8C455.4 20.7 455.1 20.6 454.8 20.6H439.9C439.4 20.6 438.9 20.8 438.5 21.1C438.1 21.4 437.9 21.9 437.8 22.4L433.3 56.4L433.3 56.4004C433.2 56.6003 433.1 56.8001 432.9 57C432.7 57.2 432.5 57.3 432.2 57.3C431.9 57.3 431.7 57.2 431.5 57.1C431.3 56.9 431.2 56.7 431.1 56.5L422.5 22.1C422.4 21.7 422.2 21.3 421.8 21C421.4 20.8 421 20.6 420.5 20.6H406.2C405.7 20.6 405.3 20.7 404.9 21C404.6 21.2 404.3 21.6 404.2 22.1Z" fill="white"/>
</svg>
