<svg xmlns="http://www.w3.org/2000/svg" width="24" height="24" viewBox="0 0 24 24"><path fill="currentColor" d="M9.622.21c.235-.126 1.12-.432 1.38.06s-.483 1.061-.736 1.196c-.252.136-.664.122-.898-.321A.675.675 0 0 1 9.622.21m2.634 4.822c.236-.126 1.12-.431 1.38.06c.26.492-.482 1.061-.735 1.196c-.253.136-.664.123-.899-.32a.675.675 0 0 1 .254-.936M12 24a11.4 11.4 0 0 1-8.08-3.345a11.38 11.38 0 0 1-3.35-8.077a11.38 11.38 0 0 1 3.35-8.077a11.4 11.4 0 0 1 3.632-2.446a2.835 2.835 0 0 1 3.719 1.508a2.84 2.84 0 0 1-1.508 3.716c-.684.289-1.3.704-1.83 1.233a5.7 5.7 0 0 0-1.684 4.067a5.7 5.7 0 0 0 1.684 4.065A5.73 5.73 0 0 0 12 18.327a5.73 5.73 0 0 0 4.068-1.683a5.7 5.7 0 0 0 1.685-4.065a2.84 2.84 0 0 1 2.838-2.837a2.84 2.84 0 0 1 2.838 2.836a11.3 11.3 0 0 1-.9 4.447a11.4 11.4 0 0 1-2.447 3.63A11.42 11.42 0 0 1 12 24m.426-21.111c.263-.14 1.346-.533 1.635.016c.29.549-.633 1.235-.915 1.386s-.742.136-1.003-.359a.754.754 0 0 1 .283-1.043m-1.004-1.806c.263-.14 1.32-.518 1.61.03c.29.55-.608 1.221-.89 1.372s-.741.136-1.003-.358a.754.754 0 0 1 .283-1.044"/></svg>