<?xml version="1.0" encoding="utf-8"?>
<!-- Generator: Adobe Illustrator 19.2.1, SVG Export Plug-In . SVG Version: 6.00 Build 0)  -->
<svg version="1.1" id="layer" xmlns="http://www.w3.org/2000/svg" xmlns:xlink="http://www.w3.org/1999/xlink" x="0px" y="0px"
	 viewBox="0 0 652 652" style="enable-background:new 0 0 652 652;" xml:space="preserve">
<path d="M76.5,281.9c-2.5,1.4-3.4,3.7-2.2,5.8c1.2,2.1,3.6,2.4,6.1,1s4-4.5,3-6.3C82.4,280.7,79.1,280.4,76.5,281.9z M76.1,292.9
	c-2.2,1.2-2.9,3.1-1.9,5c1,1.8,3.1,2.1,5.2,0.9s3.4-3.8,2.6-5.4C81.2,291.8,78.3,291.7,76.1,292.9z M75.3,279.6
	c-2.5,1.4-4.9,1.1-6.1-1c-1.2-2.2-0.3-4.3,2.2-5.8c2.5-1.5,5.8-1.3,6.9,0.6C79.3,275.2,77.8,278.2,75.3,279.6z M65.5,274.5
	c-2.2,1.2-4.2,0.9-5.2-0.9s-0.3-3.7,1.9-5c2.2-1.2,5.1-1.1,5.9,0.5C69,270.7,67.7,273.2,65.5,274.5z M71.9,374.3
	c-11.5,0-22.7-4-31.7-11.3c-8.9-7.3-15-17.5-17.3-28.8c-2.3-11.3-0.5-23.1,4.9-33.3c5.4-10.2,14.3-18.2,24.9-22.6
	c2.9-1.2,6.2-1.4,9.3-0.5c3,0.9,5.7,2.9,7.5,5.5c1.8,2.6,2.6,5.8,2.3,9c-0.3,3.2-1.7,6.1-3.9,8.4c-1.3,1.3-2.9,2.3-4.6,3.1
	c-1,0.5-2.2,1-3.2,1.7c-3.2,1.9-5.8,4.6-7.6,7.8c-1.9,3.2-2.9,6.8-3,10.5c-0.1,3.7,0.7,7.4,2.4,10.7c1.7,3.3,4.1,6.1,7.1,8.3
	c3,2.1,6.5,3.5,10.2,3.9c3.7,0.4,7.4-0.1,10.8-1.4c3.4-1.4,6.5-3.6,8.9-6.4s4-6.2,4.8-9.8c0.2-1.5,0.4-3,0.5-4.5
	c0-1.5,0.3-3,0.7-4.5c1.1-3.1,3.2-5.7,6-7.4c2.8-1.7,6.1-2.3,9.3-1.8c3.2,0.5,6.2,2.2,8.3,4.7c2.1,2.5,3.3,5.7,3.3,8.9
	c0,13.2-5.3,25.9-14.6,35.3C97.8,369,85.1,374.2,71.9,374.3L71.9,374.3z M232.3,286.8c-0.4,0-0.9,0.1-1.2,0.4
	c-0.4,0.3-0.6,0.6-0.8,1l-16.9,50.9h-0.2l-16.9-50.9c-0.1-0.4-0.4-0.8-0.8-1c-0.4-0.3-0.8-0.4-1.2-0.4H168c-0.6,0-1.1,0.2-1.5,0.6
	c-0.4,0.4-0.6,0.9-0.6,1.5v73.5c0,0.6,0.2,1.1,0.6,1.5c0.4,0.4,0.9,0.6,1.5,0.6h15.9c0.6,0,1.1-0.2,1.5-0.6c0.4-0.4,0.6-0.9,0.6-1.5
	v-46.7c0-0.1,0-0.3,0.1-0.4c0.1-0.1,0.1-0.2,0.2-0.3c0.1-0.1,0.2-0.2,0.4-0.2c0.1,0,0.3-0.1,0.4-0.1c0.2,0,0.5,0.1,0.6,0.2
	c0.2,0.1,0.3,0.3,0.4,0.5l15.9,47.7c0.1,0.4,0.4,0.8,0.8,1c0.4,0.3,0.8,0.4,1.2,0.4h14.3c0.4,0,0.9-0.1,1.2-0.4
	c0.4-0.3,0.6-0.6,0.8-1l15.9-47.7c0.1-0.2,0.2-0.4,0.4-0.5c0.2-0.1,0.4-0.2,0.6-0.2l0,0c0.3,0,0.5,0.1,0.7,0.3
	c0.2,0.2,0.3,0.5,0.3,0.7v46.7c0,0.6,0.2,1.1,0.6,1.5c0.4,0.4,0.9,0.6,1.5,0.6h15.9c0.6,0,1.1-0.2,1.5-0.6c0.4-0.4,0.6-0.9,0.6-1.5
	v-73.5c0-0.6-0.2-1.1-0.6-1.5c-0.4-0.4-0.9-0.6-1.5-0.6H232.3z M356.8,336.3c0,8.7,5.6,14,11.9,14c2.1,0,4.1-0.4,6-1.2
	c1.9-0.8,3.6-2.1,4.9-3.6c0.3-0.4,0.8-0.6,1.3-0.7c0.5-0.1,1,0.1,1.5,0.4l9.9,7.3c0.2,0.2,0.4,0.4,0.6,0.6c0.1,0.2,0.2,0.5,0.3,0.8
	c0,0.3,0,0.6-0.1,0.9c-0.1,0.3-0.2,0.5-0.4,0.7c-5.8,6.8-13.9,10.5-24.4,10.5h-1c-16.7,0-30.2-12.4-30.2-28.9v-2.5
	c0-16.5,13.5-28.9,30.2-28.9h1c10.5,0,18.6,3.7,24.4,10.5c0.2,0.2,0.3,0.5,0.4,0.7c0.1,0.3,0.1,0.6,0.1,0.8c0,0.3-0.1,0.6-0.3,0.8
	c-0.1,0.2-0.3,0.5-0.6,0.6l-9.9,7.3c-0.4,0.3-0.9,0.5-1.4,0.4s-1-0.3-1.3-0.7c-1.4-1.5-3-2.8-4.9-3.6c-1.9-0.8-3.9-1.3-6-1.2
	c-6.3,0-11.9,5.3-11.9,14V336.3z M403.2,288.6c0-0.6,0.2-1.1,0.6-1.5c0.4-0.4,0.9-0.6,1.5-0.6h34c17.3,0,29.1,10.1,29.1,26.3v1.1
	c0,16.3-11.5,26.6-29.1,26.6h-16v21.8c0,0.6-0.2,1.1-0.6,1.5c-0.4,0.4-0.9,0.6-1.5,0.6h-15.9c-0.6,0-1.1-0.2-1.5-0.6
	c-0.4-0.4-0.6-0.9-0.6-1.5V288.6z M436,323.9c6.9,0,12.2-4.2,12.2-10.4v-0.4c0-5.9-5-10.1-11.7-10.1h-13.2v20.8H436z M270.9,348.8
	c0,9.7,8,17.3,19.4,17.3c8.8,0,13.5-3.8,17.6-6.9c0.2,1.3,0.5,2.5,0.8,3.8c0.1,0.4,0.4,0.8,0.8,1.1c0.4,0.3,0.8,0.4,1.3,0.4h13.8
	c0.6,0,1.1-0.2,1.5-0.6c0.4-0.4,0.6-0.9,0.6-1.5v-32.6c0-14.8-9.8-24.3-25.2-24.3h-1.6c-8.6,0-17.1,2-24.7,6
	c-0.3,0.1-0.5,0.3-0.7,0.5c-0.2,0.2-0.3,0.5-0.4,0.8c-0.1,0.3-0.1,0.6,0,0.9c0,0.3,0.1,0.6,0.3,0.8l6.2,9.9c0.3,0.4,0.7,0.7,1.2,0.9
	c0.5,0.1,1,0.1,1.5-0.1c6-2.7,10.8-3.7,15.1-3.7c5.7,0,9,3.4,9,9.2h-4C281,330.6,270.9,336,270.9,348.8z M287.9,348
	c0-4.9,7.9-6.5,17.6-6.5h1.9v6.3c-1.6,1.7-3.5,3-5.6,3.9c-2.1,0.9-4.4,1.4-6.7,1.4C291.4,353,287.9,351.4,287.9,348L287.9,348z
	 M472.9,348.8c0,9.7,8,17.3,19.4,17.3c8.8,0,13.5-3.8,17.6-6.9c0.2,1.3,0.5,2.5,0.8,3.8c0.1,0.4,0.4,0.8,0.8,1.1
	c0.4,0.3,0.8,0.4,1.3,0.4h13.8c0.6,0,1.1-0.2,1.5-0.6c0.4-0.4,0.6-0.9,0.6-1.5v-32.6c0-14.8-9.8-24.3-25.2-24.3H502
	c-8.6,0-17,2-24.6,6c-0.3,0.1-0.5,0.3-0.7,0.5c-0.2,0.2-0.3,0.5-0.4,0.8c-0.1,0.3-0.1,0.6,0,0.9c0,0.3,0.1,0.6,0.3,0.8l6.2,9.9
	c0.3,0.4,0.7,0.7,1.2,0.9c0.5,0.1,1,0.1,1.5-0.1c6-2.7,10.8-3.7,15.1-3.7c5.7,0,9,3.4,9,9.2h-4C483,330.6,472.9,336,472.9,348.8z
	 M489.9,348c0-4.9,7.9-6.5,17.6-6.5h1.9v6.3c-1.6,1.7-3.5,3-5.6,3.9c-2.1,0.9-4.4,1.4-6.7,1.4C493.5,353,489.9,351.4,489.9,348
	L489.9,348z M560.7,342.5l8.5-34.4c0.1-0.5,0.4-0.9,0.7-1.1c0.4-0.3,0.8-0.4,1.3-0.4h14.3c0.5,0,0.9,0.2,1.3,0.4
	c0.4,0.3,0.6,0.7,0.7,1.1l8.6,34.4c0.1,0.2,0.2,0.4,0.4,0.6c0.2,0.1,0.4,0.2,0.7,0.2l0,0c0.3,0,0.5-0.1,0.7-0.3
	c0.2-0.2,0.3-0.4,0.4-0.6l4.5-34c0.1-0.5,0.3-1,0.7-1.3c0.4-0.3,0.9-0.5,1.4-0.5h14.9c0.3,0,0.6,0.1,0.9,0.2
	c0.3,0.1,0.5,0.3,0.7,0.6c0.2,0.2,0.3,0.5,0.4,0.8c0.1,0.3,0.1,0.6,0,0.9l-11.5,53.7c-0.1,0.5-0.4,0.9-0.7,1.2
	c-0.4,0.3-0.9,0.5-1.4,0.5h-18.6c-0.5,0-0.9-0.1-1.3-0.4c-0.4-0.3-0.6-0.7-0.8-1.1l-9-31.4h-0.4l-9,31.4c-0.1,0.4-0.4,0.8-0.8,1.1
	c-0.4,0.3-0.8,0.4-1.3,0.4h-18.7c-0.5,0-1-0.2-1.3-0.5c-0.4-0.3-0.6-0.7-0.7-1.2L535,309.1c-0.1-0.3-0.1-0.6,0-0.9
	c0.1-0.3,0.2-0.6,0.4-0.8c0.2-0.2,0.5-0.4,0.7-0.6c0.3-0.1,0.6-0.2,0.9-0.2h15c0.5,0,1,0.2,1.4,0.5c0.4,0.3,0.6,0.8,0.7,1.3l4.5,34
	c0,0.3,0.2,0.5,0.4,0.6c0.2,0.2,0.4,0.3,0.7,0.3l0,0c0.2,0,0.5-0.1,0.6-0.2C560.5,342.9,560.7,342.7,560.7,342.5L560.7,342.5z"/>
</svg>
