<svg width="457" height="79" viewBox="0 0 457 79" fill="none" xmlns="http://www.w3.org/2000/svg">
<path fill-rule="evenodd" clip-rule="evenodd" d="M66.1 1.19034C66.4 0.894484 66.9 0.795842 67.3 0.795842H93.2C93.8 0.795842 94.3 0.993084 94.7 1.38756C95.1 1.78203 95.3 2.27512 95.3 2.86683V75.3511C95.3 75.9428 95.1 76.4359 94.7 76.8304C94.3 77.2248 93.8 77.4221 93.2 77.4221H77.3C76.7 77.4221 76.2 77.2248 75.8 76.8304C75.4 76.4359 75.2 75.9428 75.2 75.3511V29.2965C75.2 29.0992 75.1 28.8034 74.9 28.6061C74.7 28.4089 74.5 28.3103 74.2 28.3103C74 28.3103 73.8 28.4089 73.6 28.5075C73.4 28.6061 73.3 28.8034 73.2 29.0006L57.3 76.0414C57.1 76.4359 56.9 76.7318 56.5 77.0276C56.2 77.3235 55.7 77.4221 55.3 77.4221H41C40.6 77.4221 40.2 77.3235 39.8 77.0276C39.4 76.8304 39.1 76.4359 39 76.0414L23.1 29.0006C23 28.8034 22.9 28.6061 22.7 28.5075C22.6 28.4089 22.3 28.3103 22.1 28.3103C22.05 28.3103 21.975 28.335 21.9 28.3596C21.825 28.3842 21.75 28.4089 21.7 28.4089C21.5 28.4089 21.4 28.5075 21.3 28.6061L21.3 28.6061C21.25 28.6555 21.225 28.7048 21.2 28.7541C21.175 28.8034 21.15 28.8527 21.1 28.902C21 29.0006 21 29.1979 21 29.2965V75.3511C21 75.9428 20.8 76.4359 20.4 76.8304C20 77.2248 19.5 77.4221 18.9 77.4221H3C2.4 77.4221 1.9 77.2248 1.5 76.8304C1.1 76.4359 0.899994 75.9428 0.899994 75.3511V2.86683C0.899994 2.27512 1.1 1.78203 1.5 1.38756C1.9 0.993084 2.4 0.795842 3 0.795842H29.3C29.7 0.795842 30.1 0.894484 30.5 1.19034C30.9 1.38757 31.2 1.78205 31.3 2.17652L48.2 52.3731H48.4L65.3 2.17652C65.5 1.78205 65.7 1.48619 66.1 1.19034ZM203.7 63.4183C197.4 63.4183 191.8 58.1916 191.8 49.6118H191.9V48.6256C191.9 40.0458 197.5 34.8191 203.8 34.8191C205.9 34.7205 207.9 35.2136 209.8 36.0025C211.7 36.7914 213.3 38.0735 214.7 39.5528C215 39.9472 215.5 40.1444 216 40.2431C216.5 40.3417 217 40.1445 217.4 39.8486L227.3 32.6495C227.6 32.5509 227.8 32.255 227.9 32.0578C228.1 31.8605 228.2 31.5647 228.2 31.2688C228.2 31.0716 228.2 30.7757 228.1 30.4799C228.076 30.4333 228.053 30.3812 228.028 30.3263C227.947 30.1484 227.853 29.9402 227.7 29.7896C221.9 23.0835 213.8 19.4347 203.3 19.4347H202.3C185.6 19.4347 172.1 31.6633 172.1 47.9353V50.4007C172.1 66.6727 185.6 78.9014 202.3 78.9014H203.3C213.8 78.9014 221.9 75.2525 227.7 68.5465C227.9 68.3492 228 68.152 228.1 67.8561C228.2 67.5603 228.2 67.2644 228.2 66.9686C228.1 66.6727 228 66.3769 227.9 66.1796L227.3 65.5879L217.4 58.3888C216.9 58.093 216.4 57.8957 215.9 57.9943C215.4 58.0929 214.9 58.2902 214.6 58.6847C213.3 60.1639 211.6 61.446 209.7 62.2349C207.8 63.0239 205.8 63.4183 203.7 63.4183ZM238.8 1.09171C238.4 1.48619 238.2 1.97928 238.2 2.57099V75.2525C238.2 75.8442 238.4 76.3373 238.8 76.7317C239.2 77.1262 239.7 77.3235 240.3 77.3235H256.2C256.8 77.3235 257.3 77.1262 257.7 76.7317C258.1 76.3373 258.3 75.8442 258.3 75.2525V53.7537H274.3C291.9 53.7537 303.4 43.5961 303.4 27.5213V26.4365C303.4 10.4604 291.6 0.5 274.3 0.5H240.3C239.7 0.5 239.2 0.697242 238.8 1.09171ZM283.2 27.1269C283.2 33.2412 277.9 37.3831 271 37.3831V37.2845H258.3V16.772H271.5C278.2 16.772 283.2 20.9139 283.2 26.7324V27.1269ZM125.3 79C113.9 79 105.9 71.505 105.9 61.939C105.9 49.3159 116 43.9906 138.4 44.0892H142.4C142.4 38.3693 139.1 35.0163 133.4 35.0163C129.1 35.0163 124.3 36.0025 118.3 38.6652C117.8 38.8624 117.3 38.8624 116.8 38.7638C116.3 38.5666 115.9 38.2707 115.6 37.8762L109.4 28.1131C109.2 27.9158 109.1 27.62 109.1 27.3241C109 27.0283 109 26.7324 109.1 26.4365C109.2 26.1407 109.3 25.8448 109.5 25.6476C109.7 25.4504 109.9 25.2531 110.2 25.1545C117.8 21.2098 126.3 19.2374 134.9 19.2374H136.5C151.9 19.2374 161.7 28.6061 161.7 43.2016V75.3511C161.7 75.9428 161.5 76.4359 161.1 76.8304C160.7 77.2248 160.2 77.4221 159.6 77.4221H145.8C145.3 77.4221 144.9 77.3235 144.5 77.0276C144.1 76.7318 143.8 76.3373 143.7 75.9428C143.652 75.7386 143.604 75.5368 143.557 75.3368C143.307 74.2812 143.068 73.2731 142.9 72.1953C142.76 72.3001 142.618 72.4057 142.476 72.5118C138.473 75.5049 133.798 79 125.3 79ZM140.5 54.7399C130.8 54.7399 122.9 56.3178 122.9 61.1501C122.9 64.5031 126.4 66.081 130.1 66.1796C132.4 66.1796 134.7 65.6865 136.8 64.799C138.9 63.9114 140.8 62.6294 142.4 60.9529V54.7399H140.5ZM327.3 79C315.9 79 307.9 71.505 307.9 61.939C307.9 49.3159 318 43.9906 340.6 44.0892H344.6C344.6 38.3693 341.3 35.0163 335.6 35.0163C331.3 35.0163 326.5 36.0025 320.5 38.6652C320 38.8624 319.5 38.8624 319 38.7638C318.5 38.5666 318.1 38.2707 317.8 37.8762L311.6 28.1131C311.4 27.9158 311.3 27.62 311.3 27.3241C311.2 27.0283 311.2 26.7324 311.3 26.4365C311.4 26.1407 311.5 25.8448 311.7 25.6476C311.9 25.4504 312.1 25.2531 312.4 25.1545C320 21.2098 328.4 19.2374 337 19.2374H338.5C353.9 19.2374 363.7 28.6061 363.7 43.2016V75.3511C363.7 75.9428 363.5 76.4359 363.1 76.8304C362.7 77.2248 362.2 77.4221 361.6 77.4221H347.8C347.3 77.4221 346.9 77.3235 346.5 77.0276C346.1 76.7318 345.8 76.3373 345.7 75.9428C345.652 75.7384 345.604 75.5366 345.557 75.3364C345.307 74.281 345.068 73.273 344.9 72.1953C344.76 72.3001 344.618 72.4056 344.476 72.5118C340.473 75.5049 335.798 79 327.3 79ZM342.5 54.7399C332.8 54.7399 324.9 56.3178 324.9 61.1501C324.9 64.5031 328.5 66.081 332.1 66.1796C334.4 66.1796 336.7 65.6865 338.8 64.799C340.9 63.9114 342.8 62.6294 344.4 60.9529V54.7399H342.5ZM404.2 21.8015L395.7 55.7261C395.7 55.9233 395.5 56.1206 395.3 56.3178C395.2 56.4164 394.9 56.515 394.7 56.515C394.4 56.515 394.2 56.4164 394 56.2192C393.8 56.1206 393.6 55.9233 393.6 55.6275L389.1 22.0973C389 21.6043 388.8 21.1112 388.4 20.8153C388 20.5195 387.5 20.3222 387 20.3222H372C371.7 20.3222 371.4 20.4208 371.1 20.5195C371 20.6181 370.875 20.7167 370.75 20.8153C370.625 20.9139 370.5 21.0125 370.4 21.1112C370.2 21.3084 370.1 21.6043 370 21.9001C369.9 22.196 369.9 22.4918 370 22.7877L381.3 75.7456C381.4 76.2387 381.6 76.6331 382 76.929C382.3 77.2248 382.8 77.4221 383.3 77.4221H402C402.5 77.4221 402.9 77.3235 403.3 77.0276C403.7 76.7318 404 76.3373 404.1 75.9428L413.1 44.9767H413.5L422.5 75.9428C422.7 76.3373 422.9 76.7318 423.3 77.0276C423.7 77.3235 424.1 77.4221 424.6 77.4221H443.2C443.7 77.4221 444.2 77.2248 444.6 76.929C444.9 76.6331 445.2 76.2387 445.3 75.7456L456.8 22.7877C456.9 22.4918 456.9 22.196 456.8 21.9001L456.8 21.8997C456.7 21.604 456.6 21.3083 456.4 21.1112C456.2 20.8153 456 20.6181 455.7 20.5195C455.4 20.4208 455.1 20.3222 454.8 20.3222H439.9C439.4 20.3222 438.9 20.5195 438.5 20.8153C438.1 21.1112 437.9 21.6043 437.8 22.0973L433.3 55.6275L433.3 55.6279C433.2 55.825 433.1 56.0221 432.9 56.2192C432.7 56.4164 432.5 56.515 432.2 56.515C431.9 56.515 431.7 56.4164 431.5 56.3178C431.3 56.1206 431.2 55.9233 431.1 55.7261L422.5 21.8015C422.4 21.407 422.2 21.0126 421.8 20.7167C421.4 20.5195 421 20.3222 420.5 20.3222H406.2C405.7 20.3222 405.3 20.4208 404.9 20.7167C404.6 20.9139 404.3 21.3084 404.2 21.8015Z" fill="black"/>
</svg>
